<mxfile host="app.diagrams.net" agent="Mozilla/5.0 (Windows NT 10.0; Win64; x64) AppleWebKit/537.36 (KHTML, like Gecko) Chrome/134.0.0.0 Safari/537.36 OPR/119.0.0.0 (Edition std-2)" version="27.2.0">
  <diagram name="Página-1" id="bJYllmaD8wvGfpleeAQp">
    <mxGraphModel grid="1" page="1" gridSize="10" guides="1" tooltips="1" connect="1" arrows="1" fold="1" pageScale="1" pageWidth="827" pageHeight="1169" math="0" shadow="0">
      <root>
        <mxCell id="0" />
        <mxCell id="1" parent="0" />
        <mxCell id="z1I6TeJDTpT5_EIUyGYr-1" value="Beluken RPG Battle Manager" style="rounded=0;whiteSpace=wrap;html=1;shadow=1;" vertex="1" parent="1">
          <mxGeometry x="354" y="60" width="120" height="60" as="geometry" />
        </mxCell>
        <mxCell id="z1I6TeJDTpT5_EIUyGYr-5" value="" style="endArrow=none;html=1;rounded=0;entryX=-0.003;entryY=0.94;entryDx=0;entryDy=0;entryPerimeter=0;shadow=1;" edge="1" parent="1" source="z1I6TeJDTpT5_EIUyGYr-8" target="z1I6TeJDTpT5_EIUyGYr-1">
          <mxGeometry width="50" height="50" relative="1" as="geometry">
            <mxPoint x="220" y="170" as="sourcePoint" />
            <mxPoint x="354" y="90" as="targetPoint" />
          </mxGeometry>
        </mxCell>
        <mxCell id="z1I6TeJDTpT5_EIUyGYr-6" value="Criação e Gerenciamento de Fichas" style="rounded=0;whiteSpace=wrap;html=1;shadow=1;" vertex="1" parent="1">
          <mxGeometry x="160" y="180" width="120" height="60" as="geometry" />
        </mxCell>
        <mxCell id="z1I6TeJDTpT5_EIUyGYr-10" value="" style="endArrow=none;html=1;rounded=0;shadow=1;" edge="1" parent="1" target="z1I6TeJDTpT5_EIUyGYr-8">
          <mxGeometry width="50" height="50" relative="1" as="geometry">
            <mxPoint x="220" y="170" as="sourcePoint" />
            <mxPoint x="354" y="90" as="targetPoint" />
          </mxGeometry>
        </mxCell>
        <mxCell id="z1I6TeJDTpT5_EIUyGYr-8" value="" style="ellipse;whiteSpace=wrap;html=1;fillColor=#000000;shadow=1;" vertex="1" parent="1">
          <mxGeometry x="215" y="170" width="10" height="10" as="geometry" />
        </mxCell>
        <mxCell id="z1I6TeJDTpT5_EIUyGYr-11" value="" style="endArrow=none;html=1;rounded=0;shadow=1;" edge="1" parent="1" source="z1I6TeJDTpT5_EIUyGYr-14">
          <mxGeometry width="50" height="50" relative="1" as="geometry">
            <mxPoint x="91" y="100" as="sourcePoint" />
            <mxPoint x="353" y="90" as="targetPoint" />
          </mxGeometry>
        </mxCell>
        <mxCell id="z1I6TeJDTpT5_EIUyGYr-12" value="Gerenciamento de Batalhas" style="rounded=0;whiteSpace=wrap;html=1;shadow=1;" vertex="1" parent="1">
          <mxGeometry x="31" y="110" width="120" height="60" as="geometry" />
        </mxCell>
        <mxCell id="z1I6TeJDTpT5_EIUyGYr-13" value="" style="endArrow=none;html=1;rounded=0;shadow=1;" edge="1" parent="1" target="z1I6TeJDTpT5_EIUyGYr-14">
          <mxGeometry width="50" height="50" relative="1" as="geometry">
            <mxPoint x="91" y="100" as="sourcePoint" />
            <mxPoint x="225" y="20" as="targetPoint" />
          </mxGeometry>
        </mxCell>
        <mxCell id="z1I6TeJDTpT5_EIUyGYr-14" value="" style="ellipse;whiteSpace=wrap;html=1;fillColor=#000000;shadow=1;" vertex="1" parent="1">
          <mxGeometry x="86" y="100" width="10" height="10" as="geometry" />
        </mxCell>
        <mxCell id="z1I6TeJDTpT5_EIUyGYr-15" value="" style="endArrow=none;html=1;rounded=0;entryX=0.25;entryY=1;entryDx=0;entryDy=0;shadow=1;" edge="1" parent="1" source="z1I6TeJDTpT5_EIUyGYr-18" target="z1I6TeJDTpT5_EIUyGYr-1">
          <mxGeometry width="50" height="50" relative="1" as="geometry">
            <mxPoint x="370" y="180" as="sourcePoint" />
            <mxPoint x="504" y="100" as="targetPoint" />
          </mxGeometry>
        </mxCell>
        <mxCell id="z1I6TeJDTpT5_EIUyGYr-16" value="Configuração de Batalhas" style="rounded=0;whiteSpace=wrap;html=1;shadow=1;" vertex="1" parent="1">
          <mxGeometry x="310" y="180" width="120" height="60" as="geometry" />
        </mxCell>
        <mxCell id="z1I6TeJDTpT5_EIUyGYr-17" value="" style="endArrow=none;html=1;rounded=0;shadow=1;" edge="1" parent="1" target="z1I6TeJDTpT5_EIUyGYr-18">
          <mxGeometry width="50" height="50" relative="1" as="geometry">
            <mxPoint x="370" y="170" as="sourcePoint" />
            <mxPoint x="504" y="90" as="targetPoint" />
          </mxGeometry>
        </mxCell>
        <mxCell id="z1I6TeJDTpT5_EIUyGYr-18" value="" style="ellipse;whiteSpace=wrap;html=1;fillColor=#000000;shadow=1;" vertex="1" parent="1">
          <mxGeometry x="365" y="170" width="10" height="10" as="geometry" />
        </mxCell>
        <mxCell id="z1I6TeJDTpT5_EIUyGYr-19" value="" style="endArrow=none;html=1;rounded=0;entryX=1;entryY=1;entryDx=0;entryDy=0;shadow=1;" edge="1" parent="1" source="z1I6TeJDTpT5_EIUyGYr-22" target="z1I6TeJDTpT5_EIUyGYr-1">
          <mxGeometry width="50" height="50" relative="1" as="geometry">
            <mxPoint x="510" y="170" as="sourcePoint" />
            <mxPoint x="524" y="110" as="targetPoint" />
          </mxGeometry>
        </mxCell>
        <mxCell id="z1I6TeJDTpT5_EIUyGYr-20" value="Persistência de Dados Local" style="rounded=0;whiteSpace=wrap;html=1;shadow=1;" vertex="1" parent="1">
          <mxGeometry x="460" y="180" width="120" height="60" as="geometry" />
        </mxCell>
        <mxCell id="z1I6TeJDTpT5_EIUyGYr-21" value="" style="endArrow=none;html=1;rounded=0;shadow=1;" edge="1" parent="1" target="z1I6TeJDTpT5_EIUyGYr-22">
          <mxGeometry width="50" height="50" relative="1" as="geometry">
            <mxPoint x="520" y="170" as="sourcePoint" />
            <mxPoint x="654" y="90" as="targetPoint" />
          </mxGeometry>
        </mxCell>
        <mxCell id="z1I6TeJDTpT5_EIUyGYr-22" value="" style="ellipse;whiteSpace=wrap;html=1;fillColor=#000000;shadow=1;" vertex="1" parent="1">
          <mxGeometry x="515" y="170" width="10" height="10" as="geometry" />
        </mxCell>
        <mxCell id="z1I6TeJDTpT5_EIUyGYr-23" value="" style="endArrow=none;html=1;rounded=0;entryX=1;entryY=0.5;entryDx=0;entryDy=0;shadow=1;" edge="1" parent="1" source="z1I6TeJDTpT5_EIUyGYr-26" target="z1I6TeJDTpT5_EIUyGYr-1">
          <mxGeometry width="50" height="50" relative="1" as="geometry">
            <mxPoint x="660" y="130" as="sourcePoint" />
            <mxPoint x="624" y="80" as="targetPoint" />
          </mxGeometry>
        </mxCell>
        <mxCell id="z1I6TeJDTpT5_EIUyGYr-24" value="Operação Offline" style="rounded=0;whiteSpace=wrap;html=1;shadow=1;" vertex="1" parent="1">
          <mxGeometry x="690" y="100" width="120" height="60" as="geometry" />
        </mxCell>
        <mxCell id="z1I6TeJDTpT5_EIUyGYr-25" value="" style="endArrow=none;html=1;rounded=0;shadow=1;" edge="1" parent="1" target="z1I6TeJDTpT5_EIUyGYr-26">
          <mxGeometry width="50" height="50" relative="1" as="geometry">
            <mxPoint x="750" y="90" as="sourcePoint" />
            <mxPoint x="884" y="10" as="targetPoint" />
          </mxGeometry>
        </mxCell>
        <mxCell id="z1I6TeJDTpT5_EIUyGYr-26" value="" style="ellipse;whiteSpace=wrap;html=1;fillColor=#000000;shadow=1;" vertex="1" parent="1">
          <mxGeometry x="745" y="90" width="10" height="10" as="geometry" />
        </mxCell>
        <mxCell id="z1I6TeJDTpT5_EIUyGYr-27" value="" style="endArrow=none;html=1;rounded=0;entryX=1;entryY=0.75;entryDx=0;entryDy=0;shadow=1;" edge="1" parent="1" source="z1I6TeJDTpT5_EIUyGYr-30" target="z1I6TeJDTpT5_EIUyGYr-1">
          <mxGeometry width="50" height="50" relative="1" as="geometry">
            <mxPoint x="91" y="240" as="sourcePoint" />
            <mxPoint x="55" y="190" as="targetPoint" />
          </mxGeometry>
        </mxCell>
        <mxCell id="z1I6TeJDTpT5_EIUyGYr-28" value="Suporte Multiplataforma" style="rounded=0;whiteSpace=wrap;html=1;shadow=1;" vertex="1" parent="1">
          <mxGeometry x="610" y="180" width="120" height="60" as="geometry" />
        </mxCell>
        <mxCell id="z1I6TeJDTpT5_EIUyGYr-29" value="" style="endArrow=none;html=1;rounded=0;shadow=1;" edge="1" parent="1" target="z1I6TeJDTpT5_EIUyGYr-30">
          <mxGeometry width="50" height="50" relative="1" as="geometry">
            <mxPoint x="670" y="170" as="sourcePoint" />
            <mxPoint x="804" y="90" as="targetPoint" />
          </mxGeometry>
        </mxCell>
        <mxCell id="z1I6TeJDTpT5_EIUyGYr-30" value="" style="ellipse;whiteSpace=wrap;html=1;fillColor=#000000;shadow=1;" vertex="1" parent="1">
          <mxGeometry x="665" y="170" width="10" height="10" as="geometry" />
        </mxCell>
        <mxCell id="z1I6TeJDTpT5_EIUyGYr-33" value="" style="endArrow=none;html=1;rounded=0;entryX=0.098;entryY=0.995;entryDx=0;entryDy=0;entryPerimeter=0;shadow=1;" edge="1" parent="1" source="z1I6TeJDTpT5_EIUyGYr-36" target="z1I6TeJDTpT5_EIUyGYr-1">
          <mxGeometry width="50" height="50" relative="1" as="geometry">
            <mxPoint x="156" y="314" as="sourcePoint" />
            <mxPoint x="290" y="260" as="targetPoint" />
          </mxGeometry>
        </mxCell>
        <mxCell id="z1I6TeJDTpT5_EIUyGYr-34" value="Implementação de Habilidades" style="rounded=0;whiteSpace=wrap;html=1;shadow=1;" vertex="1" parent="1">
          <mxGeometry x="180" y="290" width="120" height="60" as="geometry" />
        </mxCell>
        <mxCell id="z1I6TeJDTpT5_EIUyGYr-35" value="" style="endArrow=none;html=1;rounded=0;shadow=1;" edge="1" parent="1" target="z1I6TeJDTpT5_EIUyGYr-36">
          <mxGeometry width="50" height="50" relative="1" as="geometry">
            <mxPoint x="240" y="280" as="sourcePoint" />
            <mxPoint x="374" y="200" as="targetPoint" />
          </mxGeometry>
        </mxCell>
        <mxCell id="z1I6TeJDTpT5_EIUyGYr-36" value="" style="ellipse;whiteSpace=wrap;html=1;fillColor=none;shadow=1;" vertex="1" parent="1">
          <mxGeometry x="235" y="280" width="10" height="10" as="geometry" />
        </mxCell>
        <mxCell id="z1I6TeJDTpT5_EIUyGYr-40" value="Personalização de Interface" style="rounded=0;whiteSpace=wrap;html=1;shadow=1;" vertex="1" parent="1">
          <mxGeometry x="380" y="290" width="120" height="60" as="geometry" />
        </mxCell>
        <mxCell id="z1I6TeJDTpT5_EIUyGYr-41" value="" style="endArrow=none;html=1;rounded=0;shadow=1;" edge="1" parent="1" target="z1I6TeJDTpT5_EIUyGYr-42">
          <mxGeometry width="50" height="50" relative="1" as="geometry">
            <mxPoint x="440" y="280" as="sourcePoint" />
            <mxPoint x="574" y="200" as="targetPoint" />
          </mxGeometry>
        </mxCell>
        <mxCell id="z1I6TeJDTpT5_EIUyGYr-42" value="" style="ellipse;whiteSpace=wrap;html=1;fillColor=none;shadow=1;" vertex="1" parent="1">
          <mxGeometry x="435" y="280" width="10" height="10" as="geometry" />
        </mxCell>
        <mxCell id="z1I6TeJDTpT5_EIUyGYr-44" value="" style="endArrow=none;html=1;rounded=0;entryX=0.75;entryY=1;entryDx=0;entryDy=0;exitX=0.5;exitY=0;exitDx=0;exitDy=0;shadow=1;" edge="1" parent="1" source="z1I6TeJDTpT5_EIUyGYr-42" target="z1I6TeJDTpT5_EIUyGYr-1">
          <mxGeometry width="50" height="50" relative="1" as="geometry">
            <mxPoint x="430" y="431" as="sourcePoint" />
            <mxPoint x="553" y="270" as="targetPoint" />
          </mxGeometry>
        </mxCell>
        <mxCell id="z1I6TeJDTpT5_EIUyGYr-45" value="Evolução e Expansão de Regras" style="rounded=0;whiteSpace=wrap;html=1;shadow=1;" vertex="1" parent="1">
          <mxGeometry x="600" y="290" width="120" height="60" as="geometry" />
        </mxCell>
        <mxCell id="z1I6TeJDTpT5_EIUyGYr-50" value="" style="ellipse;whiteSpace=wrap;html=1;fillColor=none;shadow=1;" vertex="1" parent="1">
          <mxGeometry x="655" y="280" width="10" height="10" as="geometry" />
        </mxCell>
        <mxCell id="z1I6TeJDTpT5_EIUyGYr-51" value="" style="endArrow=none;html=1;rounded=0;entryX=1.004;entryY=0.858;entryDx=0;entryDy=0;exitX=0.5;exitY=0;exitDx=0;exitDy=0;entryPerimeter=0;shadow=1;" edge="1" parent="1" source="z1I6TeJDTpT5_EIUyGYr-50" target="z1I6TeJDTpT5_EIUyGYr-1">
          <mxGeometry width="50" height="50" relative="1" as="geometry">
            <mxPoint x="621" y="250" as="sourcePoint" />
            <mxPoint x="600" y="150" as="targetPoint" />
          </mxGeometry>
        </mxCell>
        <mxCell id="z1I6TeJDTpT5_EIUyGYr-55" value="" style="strokeWidth=1;html=1;shape=mxgraph.flowchart.loop_limit;whiteSpace=wrap;direction=west;fillColor=#000000;shadow=1;" vertex="1" parent="1">
          <mxGeometry x="215" y="350" width="50" height="20" as="geometry" />
        </mxCell>
        <mxCell id="z1I6TeJDTpT5_EIUyGYr-57" value="Habilidades de Dano" style="rounded=0;whiteSpace=wrap;html=1;shadow=1;" vertex="1" parent="1">
          <mxGeometry x="70" y="430" width="120" height="60" as="geometry" />
        </mxCell>
        <mxCell id="z1I6TeJDTpT5_EIUyGYr-58" value="Habilidades de Cura" style="rounded=0;whiteSpace=wrap;html=1;shadow=1;" vertex="1" parent="1">
          <mxGeometry x="280" y="420" width="120" height="60" as="geometry" />
        </mxCell>
        <mxCell id="z1I6TeJDTpT5_EIUyGYr-61" value="" style="endArrow=none;html=1;rounded=0;exitX=0.5;exitY=0;exitDx=0;exitDy=0;entryX=0.9;entryY=0.15;entryDx=0;entryDy=0;entryPerimeter=0;shadow=1;" edge="1" parent="1" source="z1I6TeJDTpT5_EIUyGYr-57" target="z1I6TeJDTpT5_EIUyGYr-55">
          <mxGeometry width="50" height="50" relative="1" as="geometry">
            <mxPoint x="165" y="410" as="sourcePoint" />
            <mxPoint x="215" y="360" as="targetPoint" />
          </mxGeometry>
        </mxCell>
        <mxCell id="z1I6TeJDTpT5_EIUyGYr-63" value="" style="endArrow=none;html=1;rounded=0;exitX=0.5;exitY=0;exitDx=0;exitDy=0;entryX=0.5;entryY=0;entryDx=0;entryDy=0;entryPerimeter=0;shadow=1;" edge="1" parent="1" source="z1I6TeJDTpT5_EIUyGYr-58" target="z1I6TeJDTpT5_EIUyGYr-55">
          <mxGeometry width="50" height="50" relative="1" as="geometry">
            <mxPoint x="195" y="420" as="sourcePoint" />
            <mxPoint x="245" y="370" as="targetPoint" />
          </mxGeometry>
        </mxCell>
        <mxCell id="z1I6TeJDTpT5_EIUyGYr-66" value="" style="endArrow=none;html=1;rounded=0;shadow=1;" edge="1" parent="1">
          <mxGeometry width="50" height="50" relative="1" as="geometry">
            <mxPoint x="615" y="410" as="sourcePoint" />
            <mxPoint x="615" y="410" as="targetPoint" />
          </mxGeometry>
        </mxCell>
      </root>
    </mxGraphModel>
  </diagram>
</mxfile>
